# xmcd
#
# Track frame offsets: 
#        150
#        16712
#        36556
#        58059
#        78295
#        103861
#        124461
#        145782
#        159700
#        181073
#        201171
#        220646
#        245887
#        273186
#        292671
#        307737
#
# Disc length: 4289 seconds
#
# Revision: 0
# Processed by: cddbd v1.5.2PL0 Copyright (c) Steve Scherf et al.
# Submitted via: ExactAudioCopy v1.1
#
DISCID=df10bf10
DTITLE=Jack De Keyzer - Best Of Vol. 1
DYEAR=2017
DGENRE=Blues
TTITLE0=Music Is The Food Of Love
TTITLE1=Soul Lover
TTITLE2=Ride With Me
TTITLE3=Blues Thing
TTITLE4=Engine Trouble
TTITLE5=High On Your Love
TTITLE6=That's The Only Time
TTITLE7=Gambler's Blues
TTITLE8=Cotton Candy
TTITLE9=Who Let The Cat Out Of The Bag ?
TTITLE10=Nothing In The World
TTITLE11=My Love Has Gone
TTITLE12=The Way That I Love You
TTITLE13=Hard Working Man
TTITLE14=Rock'n Roll Girl
TTITLE15=Blue Train
EXTD=
EXTT0=
EXTT1=
EXTT2=
EXTT3=
EXTT4=
EXTT5=
EXTT6=
EXTT7=
EXTT8=
EXTT9=
EXTT10=
EXTT11=
EXTT12=
EXTT13=
EXTT14=
EXTT15=
PLAYORDER=
